<?xml version="1.0" encoding="UTF-8" standalone="no"?>
<svg
   xmlns:dc="http://purl.org/dc/elements/1.1/"
   xmlns:cc="http://creativecommons.org/ns#"
   xmlns:rdf="http://www.w3.org/1999/02/22-rdf-syntax-ns#"
   xmlns:svg="http://www.w3.org/2000/svg"
   xmlns="http://www.w3.org/2000/svg"
   xmlns:sodipodi="http://sodipodi.sourceforge.net/DTD/sodipodi-0.dtd"
   xmlns:inkscape="http://www.inkscape.org/namespaces/inkscape"
   width="710"
   height="586"
   viewBox="0 0 187.85416 155.04584"
   version="1.1"
   id="svg1453"
   inkscape:version="1.0.2-2 (e86c870879, 2021-01-15)"
   sodipodi:docname="foxd-logo.svg">
  <defs
     id="defs1447" />
  <sodipodi:namedview
     id="base"
     pagecolor="#ffffff"
     bordercolor="#666666"
     borderopacity="1.0"
     inkscape:pageopacity="0.0"
     inkscape:pageshadow="2"
     inkscape:zoom="0.35"
     inkscape:cx="400"
     inkscape:cy="560"
     inkscape:document-units="mm"
     inkscape:current-layer="layer1"
     inkscape:document-rotation="0"
     showgrid="false"
     units="px"
     inkscape:window-width="1920"
     inkscape:window-height="1057"
     inkscape:window-x="-30080"
     inkscape:window-y="-32000"
     inkscape:window-maximized="0" />
  <metadata
     id="metadata1450">
    <rdf:RDF>
      <cc:Work
         rdf:about="">
        <dc:format>image/svg+xml</dc:format>
        <dc:type
           rdf:resource="http://purl.org/dc/dcmitype/StillImage" />
        <dc:title></dc:title>
      </cc:Work>
    </rdf:RDF>
  </metadata>
  <g
     inkscape:label="Layer 1"
     inkscape:groupmode="layer"
     id="layer1">
    <path
       style="fill:#ffffff;stroke:#000000;stroke-width:0.286869px;stroke-linecap:butt;stroke-linejoin:miter;stroke-opacity:1"
       d="M 70.079477,9.0469431 89.717417,47.546807 117.33613,57.639113 155.76758,41.036942 139.91465,83.128533 145.37118,122.56679 69.096946,142.53811 28.999181,78.903224 54.156559,51.11268 Z"
       id="path851"
       sodipodi:nodetypes="cccccccccc"
       inkscape:export-xdpi="96"
       inkscape:export-ydpi="96"
       inkscape:export-filename="C:\Users\user\path851a.png" />
    <path
       id="path849"
       style="fill:#c8b7b7;fill-opacity:1;stroke:#000000;stroke-width:5.58865;stroke-miterlimit:4;stroke-dasharray:none;paint-order:stroke fill markers"
       d="M 128.00236,143.98595 A 74.636719,74.636719 0 0 1 27.615243,111.37139 74.636719,74.636719 0 0 1 60.229816,10.984287 74.636719,74.636719 0 0 1 160.61692,43.598859 74.636719,74.636719 0 0 1 128.00236,143.98595 Z" />
    <path
       style="fill:none;stroke:#000000;stroke-width:0.286869px;stroke-linecap:butt;stroke-linejoin:miter;stroke-opacity:1"
       d="M 54.156503,51.112398 76.048556,123.9172"
       id="path855"
       sodipodi:nodetypes="cc"
       inkscape:export-xdpi="96"
       inkscape:export-ydpi="96"
       inkscape:export-filename="C:\Users\user\path851a.png" />
    <path
       style="fill:none;stroke:#000000;stroke-width:0.286869px;stroke-linecap:butt;stroke-linejoin:miter;stroke-opacity:1"
       d="M 139.91465,83.128275 76.048556,123.9172 v 0"
       id="path857"
       sodipodi:nodetypes="ccc"
       inkscape:export-xdpi="96"
       inkscape:export-ydpi="96"
       inkscape:export-filename="C:\Users\user\path851a.png" />
    <path
       style="fill:#ff6600;stroke-width:0.102454"
       d="M 65.220311,87.215025 54.37088,51.159123 61.407694,32.515531 C 65.274638,22.260408 68.82797,12.919078 69.29988,11.75561 l 0.858665,-2.1151553 9.701443,19.0258943 9.701361,19.025886 6.446625,2.352785 6.446476,2.352997 -13.177805,35.421789 c -7.249898,19.481234 -13.180444,35.428834 -13.190459,35.434784 -0.0049,0.005 -4.893261,-16.21169 -10.860404,-36.042373 z"
       id="path955"
       inkscape:export-xdpi="96"
       inkscape:export-ydpi="96"
       inkscape:export-filename="C:\Users\user\path851a.png" />
    <path
       style="fill:none;stroke:#000000;stroke-width:0.286869px;stroke-linecap:butt;stroke-linejoin:miter;stroke-opacity:1"
       d="m 60.561414,129.45271 c 0,0 0,0 15.487118,-5.53546 l 7.780676,14.68591"
       id="path963"
       inkscape:export-xdpi="96"
       inkscape:export-ydpi="96"
       inkscape:export-filename="C:\Users\user\path851a.png" />
    <path
       style="fill:#000000;stroke-width:0.0724452"
       d="m 65.13084,135.88643 c -2.214759,-3.51305 -4.016042,-6.39976 -4.002863,-6.41491 0.02356,-0.0221 12.143311,-4.3686 14.379301,-5.15574 l 0.45736,-0.16065 3.813085,7.2001 c 2.097092,3.96008 3.803079,7.20292 3.790893,7.20641 -0.732179,0.20843 -14.227024,3.71075 -14.301161,3.71144 -0.0682,-0.002 -1.705236,-2.52974 -4.136575,-6.38636 z"
       id="path967"
       inkscape:export-xdpi="96"
       inkscape:export-ydpi="96"
       inkscape:export-filename="C:\Users\user\path851a.png" />
    <path
       style="fill:#ff7f2a;fill-opacity:1;stroke:#000000;stroke-width:0.438098;stroke-miterlimit:4;stroke-dasharray:none;stroke-opacity:1;paint-order:stroke fill markers"
       d="m 89.354146,87.946268 13.246614,-35.482514 7.39988,2.756198 7.39997,2.756232 18.80698,-8.120951 18.80698,-8.120877 -7.58498,20.528347 -7.58401,20.528493 -31.53257,20.150894 c -17.342955,11.08307 -31.683988,20.22664 -31.86903,20.3192 -0.195185,0.0974 5.221866,-14.72094 12.909939,-35.31432 z"
       id="path1321"
       inkscape:export-xdpi="96"
       inkscape:export-ydpi="96"
       inkscape:export-filename="C:\Users\user\path851a.png" />
    <path
       style="fill:#ffffff;stroke:#000000;stroke-width:0.438098;paint-order:stroke fill markers"
       d="M 45.349537,104.23345 C 36.856279,90.760123 29.812577,79.534012 29.696752,79.286574 29.53103,78.933195 32.09663,75.952024 41.67196,65.371007 c 6.702192,-7.406073 12.253924,-13.431899 12.337315,-13.3908 0.23898,0.120121 21.486197,71.148743 21.390392,71.512403 -0.08522,0.33101 -13.990101,5.46839 -14.391246,5.31863 -0.119135,-0.0446 -7.165658,-11.10456 -15.658884,-24.57779 z"
       id="path1399"
       inkscape:export-xdpi="96"
       inkscape:export-ydpi="96"
       inkscape:export-filename="C:\Users\user\path851a.png" />
    <path
       style="fill:#ffffff;stroke:#000000;stroke-width:0.438098;paint-order:stroke fill markers"
       d="m 80.357794,131.3306 c -2.033858,-3.83631 -3.700464,-7.07266 -3.703659,-7.19192 -0.0057,-0.2401 62.454905,-40.204201 62.822885,-40.19509 0.18881,8.07e-4 1.91334,11.954756 5.18681,35.91714 l 0.33822,2.4761 -28.19261,7.38546 c -15.50591,4.06194 -29.218922,7.65497 -30.473197,7.98444 l -2.280578,0.59909 z"
       id="path1401"
       inkscape:export-xdpi="96"
       inkscape:export-ydpi="96"
       inkscape:export-filename="C:\Users\user\path851a.png" />
    <text
       xml:space="preserve"
       style="font-style:normal;font-weight:normal;font-size:10.5833px;line-height:1.25;font-family:sans-serif;fill:#000000;fill-opacity:1;stroke:none;stroke-width:0.264583"
       x="4.5357141"
       y="323.54758"
       id="text1513"><tspan
         sodipodi:role="line"
         id="tspan1511"
         x="4.5357141"
         y="323.54758"
         style="stroke-width:0.264583">Foxd</tspan></text>
  </g>
</svg>
