<?xml version="1.0" encoding="UTF-8" standalone="no"?>
<svg
   xmlns:dc="http://purl.org/dc/elements/1.1/"
   xmlns:cc="http://creativecommons.org/ns#"
   xmlns:rdf="http://www.w3.org/1999/02/22-rdf-syntax-ns#"
   xmlns:svg="http://www.w3.org/2000/svg"
   xmlns="http://www.w3.org/2000/svg"
   viewBox="0 0 710 586"
   height="586"
   width="710"
   id="svg10"
   version="1.1">
  <metadata
     id="metadata16">
    <rdf:RDF>
      <cc:Work
         rdf:about="">
        <dc:format>image/svg+xml</dc:format>
        <dc:type
           rdf:resource="http://purl.org/dc/dcmitype/StillImage" />
        <dc:title></dc:title>
      </cc:Work>
    </rdf:RDF>
  </metadata>
  <defs
     id="defs14" />
  <path
     style="fill:#f4b375"
     d="m 319.39559,509.72971 c -1.2125,-1.24865 -8.03749,-8.67365 -15.16665,-16.5 C 297.09979,485.40337 290.93246,479 290.52376,479 c -0.71375,0 -8.32193,-8.32206 -43.44331,-47.51962 -8.86083,-9.88921 -26.41083,-29.46467 -39,-43.50102 -41.53866,-46.31372 -70.80164,-79.01743 -76.88941,-85.93007 -18.00798,-20.44798 -28.24365,-31.84623 -39.321381,-43.78756 -7.796473,-8.40426 -12.199268,-13.91601 -11.988866,-15.00854 0.182884,-0.94964 11.352506,-9.64833 24.821387,-19.33043 17.97378,-12.92045 24.40511,-18.06959 24.17406,-19.35457 -0.29641,-1.64851 -11.23165,-31.50835 -32.717611,-89.33893 -5.163895,-13.89891 -9.146238,-25.903121 -8.849647,-26.676025 0.77026,-2.007266 43.972938,-31.553236 46.137738,-31.553236 0.99044,0 14.16309,7.017024 29.27256,15.593387 15.10947,8.576363 34.67176,19.661312 43.47176,24.63322 8.8,4.971914 21.57021,12.225004 28.37824,16.117984 10.64147,6.08503 13.30734,7.1816 19,7.81543 3.64197,0.4055 50.04682,0.76039 103.12189,0.78863 l 96.50012,0.0513 9.49988,-5.2951 c 13.67165,-7.62035 71.79627,-40.49456 89.94752,-50.872602 8.49621,-4.857737 16.29045,-8.832249 17.32054,-8.832249 2.04017,0 45.35265,29.569551 46.07686,31.456794 0.55192,1.438293 -0.92304,5.612296 -23.16087,65.543207 -9.89797,26.675 -18.15108,49.36037 -18.34024,50.41194 -0.26931,1.49705 4.97035,5.72845 24.14648,19.5 13.96252,10.02733 24.64001,18.37403 24.83841,19.41642 0.22205,1.16664 -1.94598,4.25235 -5.99042,8.52601 -6.73651,7.11832 -10.29866,11.02435 -23.83841,26.1397 -4.675,5.21902 -10.128,11.29291 -12.11779,13.49753 -1.98978,2.20462 -10.04354,11.2084 -17.89725,20.0084 -7.85371,8.8 -19.55945,21.85 -26.01277,29 -6.45332,7.15 -13.41554,15.025 -15.4716,17.5 -2.05607,2.475 -4.07121,4.725 -4.4781,5 -0.40688,0.275 -4.7409,5.02647 -9.63114,10.55882 -13.08204,14.79976 -50.67662,56.86049 -51.34189,57.44118 -0.31505,0.275 -7.93128,8.825 -16.92494,19 -8.99366,10.175 -20.6884,22.775 -25.98832,28 -9.6237,9.48768 -27.47197,28.65149 -29.9429,32.14993 C 382.66168,511.881 380.61651,512 352.08888,512 c -30.38465,0 -30.49628,-0.008 -32.69329,-2.27029 z M 286.9353,301.0225 c 7.28527,-5.73059 1.42813,-17.30923 -7.87331,-15.56427 -4.17695,0.7836 -6.7975,4.4774 -6.65838,9.38535 0.19854,7.00415 8.82142,10.67062 14.53169,6.17892 z m 139.21094,1.35632 c 2.11199,-0.81045 4.5448,-5.57783 4.5448,-8.90608 0,-3.76276 -5.00308,-8.47274 -9,-8.47274 -4.5465,0 -9,4.68535 -9,9.46853 0,6.47319 6.79303,10.4668 13.4552,7.91029 z"
     id="path34" />
  <path
     style="fill:#fc7831"
     d="m 335.21069,463.82662 -15.51965,-14.17337 v -25.67164 c 0,-23.18913 -0.16923,-25.82226 -1.75,-27.22925 -0.9625,-0.85669 -53.5,-34.48328 -116.75,-74.72574 -63.25,-40.24247 -116.012503,-74.11473 -117.250003,-75.27169 -1.2375,-1.15695 -2.25,-2.65695 -2.25,-3.33332 0,-0.67637 10.847272,-9.0093 24.105043,-18.51764 13.25778,-9.50833 24.32768,-17.86805 24.59979,-18.57715 0.27211,-0.70911 -4.5359,-14.91023 -10.68448,-31.55805 C 87.618777,87.875075 88.382378,90.076837 89.76239,88.414024 91.046619,86.86662 126.91622,61.703508 131.367,59.227711 c 2.10349,-1.17009 5.36118,0.466237 40.55562,20.370933 21.04763,11.903772 46.59342,26.426306 56.76842,32.272286 l 18.5,10.62907 101,0.88206 c 61.91285,0.54071 102.35598,0.52315 104.5038,-0.0453 1.92709,-0.51008 21.95209,-11.41968 44.5,-24.243544 22.54791,-12.823917 48.12018,-27.357772 56.82726,-32.297507 l 15.83107,-8.981335 6.66893,4.491117 c 20.86545,14.051592 33.95188,23.208587 36.06888,25.238563 l 2.39994,2.301284 -10.07566,27.327332 c -5.54162,15.03003 -15.10753,40.93906 -21.25759,57.57562 -6.15005,16.63656 -10.94302,30.87085 -10.65103,31.63176 0.29199,0.76091 11.36543,9.13378 24.60764,18.60638 13.24222,9.47259 24.07676,17.77236 24.07676,18.44392 0,1.92397 -3.6814,4.87471 -15.26118,12.23224 -5.91865,3.76058 -43.04365,27.38826 -82.5,52.50597 -39.45635,25.1177 -86.36382,54.94678 -104.23882,66.28683 -17.875,11.34005 -33.2875,21.55156 -34.25,22.69223 -1.56557,1.85537 -1.75,4.73144 -1.75,27.28979 v 25.21584 l -15.51965,14.17337 C 359.63558,471.62198 352.21942,478 351.69104,478 c -0.52838,0 -7.94454,-6.37802 -16.48035,-14.17338 z M 286.74643,302.97036 c 3.03099,-1.62214 5.21253,-6.7287 4.49911,-10.53156 -0.82245,-4.38399 -5.65359,-8.4388 -10.0545,-8.4388 -4.40091,0 -9.23205,4.05481 -10.0545,8.4388 -0.69265,3.69217 1.40095,8.78994 4.30448,10.48109 2.28465,1.33068 8.85847,1.36003 11.30541,0.0505 z m 142.02153,-1.89344 C 435.20631,294.63858 430.68372,284 421.50836,284 c -8.70239,0 -13.00072,10.06329 -7.22843,16.92327 2.18275,2.59405 3.29299,3.07673 7.07693,3.07673 3.62712,0 5.04874,-0.56071 7.4111,-2.92308 z"
     id="path32" />
  <path
     style="fill:#fa5801"
     d="m 336.05269,464.59181 -14.6691,-13.40818 0.21978,-25.84182 c 0.12087,-14.21299 -0.0822,-26.62704 -0.45134,-27.58678 -0.36911,-0.95973 -6.13633,-5.19989 -12.81605,-9.42258 -6.67972,-4.2227 -30.14494,-19.14553 -52.14494,-33.16186 -22,-14.01634 -44.725,-28.475 -50.5,-32.13037 C 130.37773,275.36959 82.691185,244.59203 82.691822,243.65481 82.692254,243.01967 93.469899,234.85 106.64214,225.5 c 13.17224,-9.35 24.20473,-17.61976 24.51666,-18.37724 0.49616,-1.20491 -9.14942,-28.09573 -34.589511,-96.43172 -3.8512,-10.34494 -6.861803,-19.432877 -6.690221,-20.195429 0.321254,-1.427724 40.064432,-29.408262 42.894272,-30.199017 1.62713,-0.454675 9.61524,3.848777 51.9177,27.969725 45.41116,25.893541 55.48462,31.547201 59.5,33.393971 3.67028,1.68806 8.24509,1.88092 55.5,2.33971 l 51.5,0.5 0.25655,72.83115 c 0.2026,57.51276 0.51809,72.74783 1.5,72.43503 0.6839,-0.21787 6.19345,-7.67833 12.24345,-16.5788 60.61785,-89.17815 87.17099,-127.52476 89.3768,-129.07319 1.44276,-1.01278 4.6482,-2.73095 7.1232,-3.81816 2.475,-1.0872 22.5,-12.22858 44.5,-24.758609 60.46112,-34.435439 62.4484,-35.541296 63.77067,-35.486173 0.67613,0.02819 8.65433,5.221021 17.72933,11.539633 9.075,6.318611 18.6375,12.887813 21.25,14.598227 2.6125,1.710413 4.74977,3.830078 4.7495,4.710367 -2.8e-4,0.880288 -0.95402,4.075524 -2.11942,7.100524 -1.84857,4.798271 -12.94651,34.750021 -34.00903,91.785521 -3.30772,8.95703 -5.86937,16.70015 -5.69254,17.20694 0.17682,0.50678 11.12149,8.64134 24.32149,18.07679 13.2,9.43546 24,17.81822 24,18.62835 0,0.84326 -13.68026,10.16013 -32,21.79341 -153.882,97.71718 -201.06384,127.85493 -203.25,129.82747 -2.22613,2.00861 -2.25,2.31255 -2.25,28.64642 v 26.61628 l -15.02347,13.70941 C 359.40467,471.83077 352.21159,478 351.68295,478 c -0.52864,0 -7.56225,-6.03368 -15.63026,-13.40819 z M 286.74643,302.97036 c 3.03099,-1.62214 5.21253,-6.7287 4.49911,-10.53156 -0.82245,-4.38399 -5.65359,-8.4388 -10.0545,-8.4388 -4.40091,0 -9.23205,4.05481 -10.0545,8.4388 -0.69265,3.69217 1.40095,8.78994 4.30448,10.48109 2.28465,1.33068 8.85847,1.36003 11.30541,0.0505 z m 142.02153,-1.89344 C 435.20631,294.63858 430.68372,284 421.50836,284 c -8.70239,0 -13.00072,10.06329 -7.22843,16.92327 2.18275,2.59405 3.29299,3.07673 7.07693,3.07673 3.62712,0 5.04874,-0.56071 7.4111,-2.92308 z"
     id="path30" />
  <path
     style="fill:#d34000"
     d="m 335.71451,464.29059 c -8.26291,-7.54017 -15.01658,-14.40267 -15.00816,-15.25 0.022,-2.20834 0.21566,-2.41524 13.98469,-14.93722 6.875,-6.25233 13.2875,-12.25822 14.25,-13.34641 1.63087,-1.84385 1.75,-6.70598 1.75,-71.42676 0,-62.48311 -0.40717,-74.2996 -2.27747,-66.09498 -0.62957,2.76182 -21.77204,87.21455 -25.4139,101.51478 -1.43571,5.6375 -2.95046,10.25 -3.36611,10.25 -0.84546,0 -19.82624,-11.96379 -90.44252,-57.00689 -12.65,-8.06889 -50.7875,-32.34012 -84.75,-53.93605 -33.9625,-21.59594 -61.74965,-39.78098 -61.749218,-40.4112 4.32e-4,-0.63022 10.778077,-8.79586 23.950318,-18.14586 13.17224,-9.35 24.20473,-17.61976 24.51666,-18.37724 0.49576,-1.20395 -9.13054,-28.04299 -34.527541,-96.26603 -6.848678,-18.397353 -7.663961,-21.317884 -6.190222,-22.174779 0.4125,-0.239845 4.575002,0.363416 9.250002,1.340581 55.607911,11.623128 105.768591,22.186798 111.000001,23.376238 3.575,0.81283 11.53291,2.47689 17.68425,3.69792 6.15134,1.22102 13.5736,3.38628 16.49392,4.81168 4.70789,2.29791 6.14759,3.83832 12.703,13.59163 8.85234,13.17075 39.7395,58.54423 45.609,67 4.09266,5.896 18.73624,27.37273 37.50091,55 6.00723,8.84446 10.1393,14 11.22074,14 1.08408,0 5.32459,-5.31722 11.56381,-14.5 5.4186,-7.975 15.85282,-23.275 23.18717,-34 46.54171,-68.05789 60.90377,-89.10134 64.01226,-93.79142 4.20207,-6.34005 9.61527,-9.24737 21.52494,-11.56061 4.4,-0.85461 14.3,-2.89637 22,-4.53722 7.7,-1.64086 23.675,-5.01055 35.5,-7.4882 58.80757,-12.321764 79.6531,-16.741442 81.25493,-17.227709 2.85157,-0.865653 3.22814,2.3819 0.98324,8.479441 C 610.79006,99.968427 603.9446,118.475 596.71708,138 c -7.22752,19.525 -15.84726,42.82848 -19.15499,51.78552 -3.30772,8.95703 -5.86937,16.70015 -5.69254,17.20694 0.17682,0.50678 11.12149,8.64134 24.32149,18.07679 13.2,9.43546 24,17.81822 24,18.62835 0,0.84326 -13.68026,10.16013 -32,21.79341 -153.882,97.71718 -201.06384,127.85493 -203.25,129.82747 -2.22613,2.00861 -2.25,2.31255 -2.25,28.64642 v 26.61628 l -15.02347,13.70941 C 359.40467,471.83077 352.21523,478 351.69104,478 c -0.52419,0 -7.71363,-6.16923 -15.97653,-13.70941 z M 286.74643,302.97036 c 3.03099,-1.62214 5.21253,-6.7287 4.49911,-10.53156 -0.82245,-4.38399 -5.65359,-8.4388 -10.0545,-8.4388 -4.40091,0 -9.23205,4.05481 -10.0545,8.4388 -0.69265,3.69217 1.40095,8.78994 4.30448,10.48109 2.28465,1.33068 8.85847,1.36003 11.30541,0.0505 z m 142.02153,-1.89344 C 435.20631,294.63858 430.68372,284 421.50836,284 c -8.70239,0 -13.00072,10.06329 -7.22843,16.92327 2.18275,2.59405 3.29299,3.07673 7.07693,3.07673 3.62712,0 5.04874,-0.56071 7.4111,-2.92308 z"
     id="path28" />
  <path
     style="fill:#d23e01"
     d="m 335.71451,464.29059 c -8.31705,-7.58958 -15.02347,-14.48341 -15.02347,-15.4433 0,-0.95363 0.83199,-2.3219 1.84887,-3.04059 1.59897,-1.13008 20.20562,-18.10996 26.85957,-24.51125 l 2.29156,-2.20454 v -72.43847 c 0,-67.76239 0.11174,-72.48134 1.73092,-73.10268 0.95201,-0.36532 1.88951,-0.18846 2.08334,0.39301 0.19382,0.58148 1.01646,1.05723 1.82809,1.05723 0.81163,0 1.21679,0.41891 0.90036,0.9309 -0.31644,0.512 -0.18364,1.17298 0.29509,1.46885 0.47873,0.29588 0.95232,3.51491 1.05242,7.1534 0.1011,3.67504 1.03844,8.86944 2.10886,11.68655 1.05978,2.78911 1.711,5.42038 1.44716,5.84728 -0.26383,0.4269 0.45748,1.4326 1.60292,2.2349 1.68929,1.18322 1.96119,2.10603 1.43966,4.88604 -0.78004,4.15795 1.1295,15.40907 3.09036,18.20859 0.78145,1.11568 1.42082,3.41337 1.42082,5.106 0,1.69262 0.41052,3.50499 0.91227,4.02749 0.50174,0.5225 1.3677,3.65 1.92434,6.95 1.90429,11.28935 2.35863,12.96544 4.22504,15.58658 2.34751,3.29677 3.76842,9.28368 4.50035,18.9619 0.31398,4.15166 0.96066,8.17916 1.43706,8.95 0.4764,0.77084 2.43734,1.40152 4.35763,1.40152 h 3.49145 l -4.42407,4.11989 -4.42407,4.11988 v 26.97071 26.9707 l -15.02347,13.70941 C 359.40467,471.83077 352.21523,478 351.69104,478 c -0.52419,0 -7.71363,-6.16923 -15.97653,-13.70941 z m -26.77514,-76.96345 c -3.43658,-1.93024 -6.24833,-3.87637 -6.24833,-4.32472 0,-1.19608 3.74495,-0.0147 5.08969,1.60564 0.63536,0.76557 1.72525,1.39194 2.42197,1.39194 1.56669,0 6.1758,3.63935 5.48667,4.33226 -0.27592,0.27743 -3.31342,-1.07487 -6.75,-3.00512 z m 6.4181,-0.75403 c -0.6533,-1.70246 1.80418,-4.01833 3.28977,-3.10018 1.56671,0.96828 1.25609,3.23163 -0.53799,3.92008 -2.121,0.81391 -2.12532,0.81262 -2.75178,-0.8199 z m 77.33357,0.50423 c 0,-1.1846 8.8646,-6.54608 9.60275,-5.80793 0.53331,0.53332 -3.45992,3.58767 -7.35275,5.62399 -1.36599,0.71454 -2.25,0.78681 -2.25,0.18394 z m -95.07129,-7.09752 c -1.96421,-1.01433 -4.13429,-2.5226 -4.8224,-3.35172 -1.08841,-1.31146 -0.69293,-1.4564 3.0412,-1.1146 2.65083,0.24264 4.58478,-0.0672 5.05709,-0.8103 0.51152,-0.80477 0.76985,-0.58827 0.78009,0.65379 0.01,1.20777 0.52191,1.66259 1.46438,1.30093 0.96852,-0.37166 1.26467,-0.0755 0.89301,0.89301 -0.30583,0.79699 -0.92492,1.44907 -1.37574,1.44907 -0.45083,0 -0.96519,0.63541 -1.14302,1.41203 -0.2657,1.16041 -0.95971,1.08339 -3.89461,-0.43221 z m 107.47007,-1.34759 c -0.80897,-0.83175 -0.27819,-1.6433 2,-3.05799 5.67017,-3.52099 9.11725,-2.45255 3.85122,1.1937 -4.24667,2.94044 -4.67257,3.07614 -5.85122,1.86429 z M 282.75804,370.7246 c -2.43815,-1.70643 -3.90721,-3.27786 -3.26458,-3.49207 0.64264,-0.21422 2.46328,0.53254 4.04588,1.65945 1.5826,1.12691 3.1277,1.79868 3.43356,1.49283 0.30585,-0.30586 1.05839,0.38244 1.6723,1.52954 1.61583,3.0192 -0.47801,2.59605 -5.88716,-1.18975 z m 132.83093,1.46612 c 0.57712,-1.07836 2.18049,-2.24457 3.56304,-2.59157 1.38255,-0.347 3.30073,-1.86126 4.26263,-3.36503 0.96189,-1.50376 2.43008,-3.32999 3.26265,-4.05828 1.07856,-0.94347 1.10996,-1.11467 0.10924,-0.59549 -0.79633,0.41314 -1.1515,0.31929 -0.82022,-0.21673 0.32135,-0.51996 2.26471,-1.05856 4.31856,-1.19688 2.05385,-0.13832 4.16883,-0.52006 4.69996,-0.84831 0.53112,-0.32825 0.76071,0.0283 0.51019,0.79237 -0.37188,1.13421 -10.81194,8.2257 -19.12967,12.99398 -1.60509,0.92014 -1.6989,0.80969 -0.77638,-0.91406 z m -95.89793,-2.24974 c 0,-1.13246 0.38218,-1.82281 0.84929,-1.53413 1.95935,1.21095 3.42002,-4.30983 2.73717,-10.34544 L 322.59173,352 h 2.66315 c 3.02892,0 3.02959,-0.051 -0.16929,12.75 -1.40633,5.62771 -2.21258,7.25 -3.60314,7.25 -1.14186,0 -1.79141,-0.74658 -1.79141,-2.05902 z m -48.54112,-7.00751 c -1.02606,-1.66021 -0.10511,-1.89043 1.33055,-0.33261 0.70918,0.76953 0.84824,1.39914 0.30901,1.39914 -0.53922,0 -1.27702,-0.47994 -1.63956,-1.06653 z m 109.93956,-7.19146 c 0.54549,-4.74818 1.08884,-5.41242 3.07739,-3.76207 2.82517,2.34468 1.59985,7.73122 -1.75205,7.70214 -1.47478,-0.0128 -1.69971,-0.68148 -1.32534,-3.94007 z m -121.75464,-0.28782 c -4.09872,-3.1296 -6.04614,-5.23819 -3.8938,-4.21605 5.46987,2.59762 7.01055,3.53255 8.5,5.15804 3.68205,4.01836 1.23468,3.51786 -4.6062,-0.94199 z m 182.3562,-0.0132 c 0,-0.85746 0.45734,-1.27636 1.01631,-0.9309 0.55897,0.34546 0.75742,1.04702 0.44098,1.55902 -0.85723,1.38704 -1.45729,1.12841 -1.45729,-0.62812 z m -172.30709,-0.20986 c -1.04599,-0.23139 -1.67198,-1.10129 -1.4863,-2.06544 0.4324,-2.24529 5.01957,-2.23227 5.34943,0.0152 0.27653,1.8841 -1.16231,2.64773 -3.86313,2.05026 z m 177.80709,-3.23112 c 0.33992,-0.55 1.2806,-1 2.0904,-1 1.98914,0 2.90268,-2.70095 1.48948,-4.40375 -0.91076,-1.0974 -0.56939,-1.57856 1.675,-2.36096 1.55039,-0.54046 3.92729,-0.89857 5.282,-0.79579 3.20948,0.24349 5.96312,-1.13015 5.96312,-2.97468 0,-0.80565 0.76331,-1.46482 1.69625,-1.46482 0.93294,0 3.41609,-1.19185 5.51811,-2.64855 2.10203,-1.45671 4.15122,-2.30393 4.55375,-1.88272 0.40254,0.42121 -0.11323,1.27556 -1.14616,1.89855 -3.16477,1.90878 -19.9555,12.75879 -22.83146,14.75348 -2.91355,2.02076 -5.29798,2.5094 -4.29049,0.87924 z m -126.5,-2.5 c 0,-0.825 0.45,-1.5 1,-1.5 0.55,0 1,0.675 1,1.5 0,0.825 -0.45,1.5 -1,1.5 -0.55,0 -1,-0.675 -1,-1.5 z m 57.93283,-0.62551 c -1.23749,-2.31227 -1.5856,-11.01071 -0.69532,-17.37449 0.30777,-2.2 0.60524,-5.03906 0.66104,-6.30902 0.0648,-1.47566 0.51813,-2.05149 1.25596,-1.59549 0.63498,0.39244 0.90721,0.3065 0.60496,-0.19098 -0.30225,-0.49748 0.0782,-1.48475 0.84549,-2.19394 0.76727,-0.70918 1.40193,-0.93418 1.41035,-0.5 0.008,0.43419 0.44995,0.11443 0.98118,-0.71057 0.53122,-0.825 0.71234,-3.4125 0.40249,-5.75 -0.3773,-2.84636 -0.18646,-4.25 0.57784,-4.25 0.62767,0 0.89224,0.40285 0.58794,0.89522 -0.3043,0.49236 0.0748,1.13623 0.84245,1.4308 1.57029,0.60258 2.95456,-2.9844 1.49891,-3.88404 -1.23221,-0.76155 -1.1538,-5.41102 0.0939,-5.56698 0.55,-0.0688 1.4275,-0.18125 1.95,-0.25 1.6166,-0.21271 2.66282,-1.94902 3.99194,-6.625 0.7035,-2.475 1.57726,-4.725 1.94168,-5 1.86936,-1.41069 4.11636,-6.28301 4.11636,-8.92586 0,-1.64793 0.83658,-3.80126 1.85906,-4.78518 1.02248,-0.98393 2.16567,-3.06481 2.54044,-4.62418 0.37476,-1.55937 1.56338,-3.78193 2.64137,-4.93902 1.07799,-1.15709 1.85426,-2.58124 1.72503,-3.16478 -0.35953,-1.62345 2.42841,-7.75529 4.44121,-9.76809 0.98609,-0.98609 1.82732,-2.35539 1.8694,-3.04289 0.18515,-3.02489 0.8484,-4.81777 2.33057,-6.29994 1.92025,-1.92025 3.97879,-9.99735 2.73676,-10.73822 -0.35411,-0.21123 -0.0849,-0.24829 0.59827,-0.0824 1.06209,0.25797 4.42237,-4.60442 4.23438,-6.12721 -0.18663,-1.51176 1.26551,-8.24498 2.11202,-9.79295 0.53858,-0.98487 0.72983,-2.19423 0.42499,-2.68747 -0.61191,-0.9901 3.1148,-0.49387 6.79279,0.9045 2.50047,0.95068 42.69371,40.53863 42.69371,42.05077 0,0.48846 0.87698,1.16645 1.94885,1.50664 1.07186,0.3402 2.20631,1.42975 2.52099,2.42123 0.31469,0.99148 2.07119,2.60997 3.90335,3.59665 1.83216,0.98669 4.14931,3.31311 5.14922,5.16984 0.99991,1.85672 2.83682,3.63156 4.08202,3.94409 2.08484,0.52326 4.39557,4.68213 4.39557,7.91118 0,0.67556 -2.5267,3.30841 -5.61488,5.85077 -4.02995,3.31767 -6.49984,4.62292 -8.75,4.62403 -3.02916,0.002 -6.90802,1.6976 -11.79319,5.15675 -1.28806,0.91207 -4.20684,1.86004 -6.48616,2.1066 -2.27933,0.24656 -5.42933,1.33374 -7,2.41596 -4.74794,3.2714 -11.60128,6.53916 -16.26116,7.75352 -2.49601,0.65046 -5.03806,2.10089 -5.8651,3.34648 -1.34735,2.02922 -1.27767,2.27132 0.90539,3.1454 2.25362,0.90233 2.26444,0.94996 0.22941,1.01035 -1.17463,0.0349 -3.36812,-0.576 -4.87443,-1.35748 -3.13633,-1.62715 -5.1076,-1.16195 -6.55767,1.54753 -0.70872,1.32426 -1.68784,1.72179 -3.2655,1.32583 -2.29159,-0.57516 -8.13335,2.98345 -7.24833,4.41544 0.24059,0.38928 -0.67012,0.79945 -2.02381,0.91149 -1.35368,0.11203 -3.77389,0.88249 -5.37824,1.71214 -1.60436,0.82964 -3.5455,1.50844 -4.31366,1.50844 -0.76816,0 -2.43436,0.9 -3.70267,2 -1.26831,1.1 -3.10502,2 -4.08158,2 -0.97656,0 -2.38092,0.5625 -3.1208,1.25 -1.41221,1.31223 -1.8249,1.4564 -8.36588,2.92255 l -4.06825,0.9119 0.32773,5.45777 c 0.20474,3.40958 -0.0732,5.45778 -0.74076,5.45778 -0.58767,0 -0.79038,0.45 -0.45046,1 0.33992,0.55 0.38231,1 0.0942,1 -0.28811,0 -1.03573,-0.95648 -1.66137,-2.12551 z m 50.14409,-47.79757 c 6.43835,-6.43834 1.91576,-17.07692 -7.2596,-17.07692 -8.70239,0 -13.00072,10.06329 -7.22843,16.92327 2.18275,2.59405 3.29299,3.07673 7.07693,3.07673 3.62712,0 5.04874,-0.56071 7.4111,-2.92308 z m -174.3022,47.67308 c -0.2416,-0.6875 -0.1096,-2.375 0.29333,-3.75 0.40292,-1.375 0.77745,-1.91094 0.83227,-1.19098 0.0588,0.77241 0.61209,1.00117 1.34968,0.55804 0.9771,-0.58702 0.97333,-0.40925 -0.0172,0.81423 -0.69699,0.86087 -0.98635,2.29725 -0.64301,3.19196 0.34333,0.89471 0.17424,1.62675 -0.37576,1.62675 -0.55,0 -1.19767,-0.5625 -1.43926,-1.25 z m -10.79974,-3 c -1.82644,-1.2375 -3.49646,-2.78542 -3.71116,-3.43982 -0.58158,-1.77264 7.37999,2.31922 8.08445,4.15501 0.81808,2.13189 -0.48603,1.91862 -4.37329,-0.71519 z m 85.58978,-6.64522 c -0.3043,-0.49236 0.0962,-1.14445 0.89006,-1.44907 0.96277,-0.36945 1.25818,-0.0714 0.88726,0.89522 -0.6446,1.67981 -1.01089,1.79396 -1.77732,0.55385 z m -99.06476,-2.10478 c -1.75133,-1.9352 -1.74663,-2 0.14501,-2 1.98435,0 4.35499,1.74192 4.35499,3.2 0,1.51458 -2.69331,0.79636 -4.5,-1.2 z m 17.16667,1.33333 c -0.36667,-0.36666 -0.65299,-1.37916 -0.63626,-2.25 0.025,-1.3003 0.22011,-1.2571 1.09166,0.24167 1.07678,1.85169 0.76461,3.22835 -0.4554,2.00833 z M 313.0187,336.648 c -1.00521,-0.56015 -2.4223,-1.61009 -3.14909,-2.33322 -0.72678,-0.72312 -2.63928,-1.31477 -4.25,-1.31477 -1.61071,0 -2.92857,-0.43588 -2.92857,-0.96862 0,-0.53273 -0.74882,-0.68126 -1.66404,-0.33006 -1.09302,0.41943 -1.42403,0.2502 -0.96461,-0.49316 0.4537,-0.7341 -1.18959,-1.68087 -4.67719,-2.69474 -2.99952,-0.87198 -6.32813,-2.65735 -7.52878,-4.03822 -2.0188,-2.32183 -3.8098,-2.96688 -7.01573,-2.5268 -0.7427,0.10195 -1.05167,-0.29791 -0.68662,-0.88858 0.80823,-1.30775 -1.11048,-2.12102 -5.5953,-2.37163 -1.85225,-0.1035 -4.26935,-1.08819 -5.37133,-2.18819 -2.89955,-2.89434 -5.5189,-4.15906 -10.27961,-4.96337 -2.31347,-0.39086 -4.46023,-1.1215 -4.77057,-1.62364 -0.31034,-0.50215 -1.63614,-0.91299 -2.94622,-0.91299 -1.31008,0 -2.66462,-0.45734 -3.01008,-1.01631 -0.34546,-0.55897 -1.02786,-0.76926 -1.51643,-0.46731 -0.48857,0.30196 -1.56261,-0.75494 -2.38676,-2.34866 -1.4602,-2.82373 -3.12813,-3.41472 -12.33673,-4.37122 -0.6875,-0.0714 -1.25,-0.49569 -1.25,-0.94284 0,-1.41904 -7.82531,-4.86794 -10.20987,-4.49986 -1.25957,0.19443 -3.22605,-0.25722 -4.36996,-1.00365 -1.1439,-0.74644 -2.34031,-1.09667 -2.65869,-0.7783 -0.31838,0.31838 -0.87685,-0.35998 -1.24104,-1.50746 -0.3642,-1.14748 -1.94834,-2.75142 -3.52031,-3.56432 -3.44891,-1.7835 -4.10422,-4.81956 -2.03856,-9.44473 1.56988,-3.51506 5.21138,-8.05534 6.46075,-8.05534 1.16601,0 50.57768,-49.8415 50.57768,-51.01766 0,-0.6052 0.45,-0.82226 1,-0.48234 0.55,0.33992 1,0.0665 1,-0.60765 0,-0.67413 0.27127,-0.95441 0.60282,-0.62286 0.33156,0.33155 1.60662,0.22118 2.83348,-0.24527 2.90082,-1.10289 3.505,-0.58432 6.96235,5.97578 1.59425,3.025 3.37328,6.10639 3.95339,6.84753 0.5801,0.74114 1.18744,2.21708 1.34963,3.27985 0.16219,1.06278 1.42145,4.15549 2.79836,6.87269 1.37691,2.7172 3.22336,7.09126 4.10322,9.72014 2.11709,6.32557 5.20798,11.27979 7.03733,11.27979 0.93032,0 1.18928,0.4629 0.69929,1.25 -1.00226,1.60998 -0.46317,5.86334 0.96337,7.60088 0.61001,0.74299 1.2073,2.01996 1.32732,2.83771 0.12002,0.81776 0.85882,2.23486 1.64177,3.14912 0.78296,0.91426 2.01041,3.91229 2.72767,6.66229 1.27501,4.88842 3.46532,8.5 5.15499,8.5 0.46475,0 0.84501,-0.675 0.84501,-1.5 0,-0.93333 0.94444,-1.5 2.5,-1.5 2.96983,0 3.48689,2.92916 0.6481,3.67152 -1.48736,0.38896 -1.79156,1.2802 -1.54533,4.52756 0.16862,2.2238 1.00198,4.81168 1.85191,5.75084 0.84992,0.93916 1.55221,2.57213 1.56063,3.62882 0.0212,2.66147 1.133,4.1218 3.48469,4.57714 1.61924,0.31351 1.96445,1.1018 1.81326,4.14055 -0.20063,4.03243 5.35193,16.79605 6.53722,15.02706 0.35724,-0.53315 1.43702,-1.25993 2.39952,-1.61505 2.04651,-0.75507 2.38535,1.25621 0.52504,3.11652 -0.94025,0.94025 -0.95418,1.65855 -0.0599,3.09048 0.99936,1.60023 0.85359,1.88554 -1.02504,2.00628 -10.29392,0.6616 -12.76853,0.61444 -14.36242,-0.27373 z m -26.27227,-33.67763 c 3.03099,-1.62214 5.21253,-6.7287 4.49911,-10.53156 -0.82245,-4.38399 -5.65359,-8.4388 -10.0545,-8.4388 -4.40091,0 -9.23205,4.05481 -10.0545,8.4388 -0.69265,3.69217 1.40095,8.78994 4.30448,10.48109 2.28465,1.33068 8.85847,1.36003 11.30541,0.0505 z m 124.07727,32.64622 c -2.05539,-1.13959 -2.14345,-1.39846 -0.66821,-1.96456 2.95276,-1.13308 6.53555,-0.72687 6.53555,0.74099 0,0.76616 -0.7118,1.66616 -1.58179,2 -1.8954,0.72733 -1.41701,0.81401 -4.28555,-0.77643 z m -192.13266,-5.7559 c -2.475,-1.64109 -5.15374,-3.36255 -5.95276,-3.82546 -1.22084,-0.7073 -1.23879,-1.09949 -0.11247,-2.45663 1.20219,-1.44854 1.73419,-1.2009 5.16271,2.40322 2.10233,2.21001 4.74043,4.01819 5.86246,4.01819 1.14672,0 2.04006,0.65685 2.04006,1.5 0,2.18158 -1.91329,1.73351 -7,-1.63932 z m 257.57921,1.26432 c -0.21137,-0.34375 1.17458,-0.73941 3.07988,-0.87925 1.90531,-0.13983 3.21966,0.14142 2.92079,0.625 -0.61841,1.0006 -5.41672,1.20391 -6.00067,0.25425 z m -144.86488,-3.14058 c 0.64844,-2.47967 1.92759,-3.37282 2.80266,-1.95693 0.67815,1.09727 -1.16447,3.97251 -2.54582,3.97251 -0.43116,0 -0.54674,-0.90701 -0.25684,-2.01558 z m 158.84183,-4.61546 c 1.82925,-1.99707 4.45173,-3.75462 5.82774,-3.90567 1.37601,-0.15105 2.97754,-0.56864 3.55897,-0.92798 0.58142,-0.35934 1.05146,-0.28929 1.04453,0.15567 -0.0165,1.05972 -10.95371,8.30902 -12.53603,8.30902 -0.67161,0 0.27555,-1.63397 2.10479,-3.63104 z m -114.03298,-0.2889 c 0.59708,-1.0533 0.37524,-1.25506 -0.85914,-0.78138 -0.91522,0.3512 -1.66404,0.233 -1.66404,-0.26268 0,-1.12092 3.92711,-2.44223 4.76584,-1.6035 0.33831,0.33832 -0.20899,1.3919 -1.21623,2.34131 -1.09818,1.03512 -1.5091,1.15773 -1.02643,0.30625 z m -53.52318,-1.08006 c 0,-0.55 0.47656,-1 1.05902,-1 0.58246,0 0.7809,0.45 0.44098,1 -0.33992,0.55 -0.81648,1 -1.05902,1 -0.24254,0 -0.44098,-0.45 -0.44098,-1 z m 157.54271,0.0691 c -0.31644,-0.512 -0.11799,-1.21356 0.44098,-1.55902 1.19337,-0.73755 3.01631,0.19857 3.01631,1.54894 0,1.2168 -2.70662,1.22469 -3.45729,0.0101 z m -259.95861,-1.71054 c -0.51929,-1.35323 -0.37018,-1.42591 0.8492,-0.41391 0.8135,0.67514 1.9488,0.93723 2.5229,0.58242 0.57409,-0.35481 1.0438,-0.16855 1.0438,0.41391 0,1.70636 -3.72621,1.2149 -4.4159,-0.58242 z m -16.5841,-0.35856 c -1.2819,-0.82843 -1.24555,-0.9716 0.25,-0.98469 1.68739,-0.0148 2.242,-1.94272 1.8023,-6.26531 -0.10084,-0.99127 0.49472,-1.75 1.37364,-1.75 1.04361,0 1.48391,0.81856 1.34475,2.5 -0.1138,1.375 -0.54463,2.5 -0.95741,2.5 -0.41278,0 -0.49149,0.675 -0.17491,1.5 0.31659,0.825 0.0509,1.5 -0.5904,1.5 -0.6413,0 -0.88789,0.45 -0.54797,1 0.78218,1.2656 -0.54163,1.2656 -2.5,0 z m 53.33583,-0.56722 c -0.94625,-2.46588 0.9992,-3.64813 3.21792,-1.95553 1.68417,1.28481 1.74426,1.6199 0.44625,2.48843 -2.09922,1.40465 -2.96922,1.27812 -3.66417,-0.5329 z m -16.09084,-0.68278 c 0.63336,-1.92318 4.75501,-2.20017 4.75501,-0.31955 0,1.02102 -0.90283,1.56955 -2.58333,1.56955 -1.61956,0 -2.42976,-0.46635 -2.17168,-1.25 z m -48.71931,-5.83585 c -3.7517,-2.37926 -4.54071,-3.295 -3.44578,-3.99924 0.99967,-0.64298 2.02436,-0.22889 3.46113,1.39867 1.12257,1.27164 2.81007,2.60717 3.75,2.96786 0.93993,0.36068 1.70897,1.11991 1.70897,1.68718 0,1.41771 0.002,1.41839 -5.47432,-2.05447 z m 312.72432,1.83585 c 0.32275,-1.61373 3.05667,-3.65215 5.40794,-4.03217 1.01314,-0.16375 3.0936,-1.12821 4.62327,-2.14324 5.26617,-3.49444 3.68047,-0.93084 -2.00657,3.24403 -5.75435,4.22427 -8.48254,5.22087 -8.02464,2.93138 z m -7.91667,-1.04975 c 0,-0.71486 0.85902,-1.36446 1.90893,-1.44355 1.55474,-0.11711 1.68664,0.12404 0.71089,1.29975 -1.48861,1.79366 -2.61982,1.85575 -2.61982,0.1438 z m -178.33333,-6.78358 c 0,-2.65856 0.40567,-3.94811 1.16263,-3.69579 1.36489,0.45496 1.99802,3.53992 1.23736,6.02912 -0.97626,3.19475 -2.39999,1.81056 -2.39999,-2.33333 z m 18.95416,-1.00232 c -1.16663,-2.17987 -0.77142,-3.17713 1.38451,-3.49355 0.86815,-0.12742 1.14442,0.74103 0.85755,2.69561 -0.50453,3.43759 -0.77739,3.5347 -2.24206,0.79794 z m -157.81694,-0.97198 c -1.84953,-1.12758 -3.14013,-2.2728 -2.868,-2.54492 0.99965,-0.99965 5.35654,0.77365 6.53428,2.65951 1.55134,2.4841 0.54463,2.45263 -3.66628,-0.11459 z m 13.02805,0.43653 c -1.41262,-1.03293 -1.13386,-1.29417 2.01042,-1.88404 4.60013,-0.86299 7.91671,0.10078 7.15727,2.07984 -0.67367,1.75555 -6.67433,1.62739 -9.16769,-0.1958 z m 312.64723,-0.062 c 0.72187,-0.28887 1.58438,-0.25335 1.91667,0.0789 0.33229,0.33229 -0.25834,0.56864 -1.3125,0.52522 -1.16495,-0.048 -1.4019,-0.28494 -0.60417,-0.60416 z m 17.1875,-1.12658 c 0,-0.53699 0.7126,-1.24979 1.58356,-1.58401 0.97391,-0.37373 1.43108,-0.15024 1.1875,0.58051 -0.49828,1.49484 -2.77106,2.31789 -2.77106,1.0035 z m -41.04647,-2.10349 c 1.03915,-1.94168 2.52322,-2.16974 4.81278,-0.73961 1.96699,1.22864 0.43133,2.65278 -2.86051,2.65278 -2.62127,0 -2.85407,-0.22814 -1.95227,-1.91317 z m -310.45353,-2.5567 c -13.76312,-8.61054 -14.38725,-9.12406 -10.0913,-8.30283 1.72525,0.3298 2.26238,0.0791 1.89302,-0.88342 -0.28364,-0.73914 -0.0175,-1.34388 0.59129,-1.34388 0.60885,0 1.10699,0.42002 1.10699,0.93338 0,0.51335 2.10704,2.98131 4.68231,5.48435 4.70987,4.57776 5.53101,6.43554 1.81769,4.1124 z m 357,0.46987 c 0.33992,-0.55 1.06803,-1 1.61803,-1 0.55,0 0.72189,0.45 0.38197,1 -0.33992,0.55 -1.06803,1 -1.61803,1 -0.55,0 -0.72189,-0.45 -0.38197,-1 z m 5.5,-2.50744 c 0,-1.08315 2.40553,-2.89837 6.95222,-5.24616 3.61744,-1.86796 4.08457,-1.94453 2.72975,-0.44748 -1.86372,2.05939 -9.68197,6.65703 -9.68197,5.69364 z m -193.34468,-5.49256 c -0.90972,-2.79902 -0.34688,-5.08729 1.17848,-4.79123 2.13726,0.41483 2.42259,2.06034 0.7511,4.33167 -1.1862,1.61188 -1.52856,1.69342 -1.92958,0.45956 z m 25.87451,-3.25 c 0.13431,-1.7875 0.29505,-4.0375 0.35719,-5 0.21844,-3.38352 1.85595,-1.70294 2.41709,2.48067 0.36729,2.73834 0.14918,4.49664 -0.61833,4.98469 -2.04268,1.2989 -2.40745,0.88178 -2.15595,-2.46536 z m 162.47017,0.80902 c 0,-1.74279 1.63967,-2.89975 2.95633,-2.08601 1.33094,0.82257 0.13222,3.52699 -1.56332,3.52699 -0.76615,0 -1.39301,-0.64844 -1.39301,-1.44098 z m 17,-0.55902 c 0,-0.55 0.47656,-1 1.05902,-1 0.58246,0 0.7809,0.45 0.44098,1 -0.33992,0.55 -0.81648,1 -1.05902,1 -0.24254,0 -0.44098,-0.45 -0.44098,-1 z m -397.82982,-4.19973 c -4.20609,-2.71348 -5.91408,-4.34051 -5.09069,-4.8494 0.68153,-0.42121 1.91627,-0.50599 2.74387,-0.18841 0.97981,0.37599 1.25249,0.16928 0.78167,-0.59252 -0.95497,-1.54517 -0.0974,-1.47591 3.26693,0.26385 2.46241,1.27336 7.13956,9.66792 5.29759,9.50813 -0.36825,-0.0319 -3.51797,-1.89569 -6.99937,-4.14165 z m 398.32982,-0.56558 c -1.57513,-1.15723 -1.81057,-5.23469 -0.30226,-5.23469 0.77659,0 1.37411,1.23962 1.44605,3 0.0674,1.65 0.0627,2.99311 -0.0106,2.98469 -0.0733,-0.008 -0.5832,-0.34592 -1.1332,-0.75 z m 8.19756,0.0697 c -0.2682,-0.44239 0.14013,-1.38458 0.9074,-2.09377 0.76727,-0.70918 1.39504,-1.03631 1.39504,-0.72694 0,0.30936 1.08273,-0.14696 2.40607,-1.01404 1.56801,-1.0274 2.31891,-2.37063 2.15581,-3.85639 -0.15001,-1.36655 0.28822,-2.27987 1.09393,-2.27987 0.7393,0 1.34419,0.64815 1.34419,1.44033 0,0.88339 0.58001,1.20561 1.5,0.83333 0.825,-0.33385 2.24882,-0.90846 3.16404,-1.27693 1.12563,-0.45317 1.4301,-0.29139 0.94099,0.5 -0.39769,0.64347 -1.17653,1.16994 -1.73077,1.16994 -0.55424,0 -2.44018,1.06545 -4.19098,2.36766 -5.64354,4.19757 -8.4868,5.75963 -8.98572,4.93668 z m -211.69756,-5.80439 c 0,-1.68889 0.45833,-2.51389 1.25,-2.25 0.6875,0.22917 1.25,1.24167 1.25,2.25 0,1.00833 -0.5625,2.02083 -1.25,2.25 -0.79167,0.26389 -1.25,-0.56111 -1.25,-2.25 z m -208.75,-3.06614 c -2.3375,-1.40097 -4.25,-2.97171 -4.25,-3.49054 0,-1.4212 1.79107,-1.13223 2.70031,0.43567 0.43983,0.75845 2.37469,2.33176 4.29969,3.49626 1.925,1.1645 3.05,2.1147 2.5,2.11155 -0.55,-0.003 -2.9125,-1.15197 -5.25,-2.55294 z m 168.80305,-0.86994 c -0.87949,-1.05971 -0.90523,-1.9716 -0.0982,-3.47948 0.60148,-1.12387 0.7996,-3.29013 0.44028,-4.81392 -0.46238,-1.96083 -0.33736,-2.47769 0.42777,-1.76855 0.98951,0.9171 1.4592,5.4036 1.02051,9.74803 -0.21372,2.11657 -0.28403,2.12889 -1.79032,0.31392 z m 44.04764,-0.0639 c -0.10038,-1.52876 -0.33527,-1.67806 -0.99692,-0.63367 -0.65613,1.03569 -1.31791,1.10355 -2.73469,0.28041 -1.40131,-0.81415 -1.49368,-1.09737 -0.36908,-1.13164 1.33333,-0.0407 1.33333,-0.15343 0,-1.0151 -1.29735,-0.83841 -1.27484,-0.97144 0.16667,-0.98469 0.91666,-0.008 1.85376,-0.57661 2.08244,-1.26265 0.61851,-1.85553 2.96484,3.02009 2.43012,5.04975 -0.36124,1.37119 -0.47248,1.31304 -0.57854,-0.30241 z m 204.60957,-0.81268 c -0.79295,-2.06638 0.0965,-2.68732 3.84942,-2.68732 2.96365,0 5.73788,2.50367 3.09498,2.79313 -0.63506,0.0695 -2.32855,0.40985 -3.76331,0.75622 -1.82454,0.44047 -2.78071,0.18136 -3.18109,-0.86203 z m 20.28974,-0.29189 c 0,-0.82684 3.19362,-3.31978 4.30902,-3.36363 0.44496,-0.0175 0.53239,0.41578 0.1943,0.96282 -0.80433,1.30144 -4.50332,3.27344 -4.50332,2.40081 z m -450.1852,-5.43027 c -5.96849,-3.15244 -5.751,-4.66863 0.57292,-3.99413 1.03824,0.11074 2.26885,-0.39994 2.73468,-1.13484 0.54032,-0.85241 0.85252,0.20258 0.86229,2.91381 0.008,2.3375 -0.0972,4.23011 -0.23469,4.2058 -0.1375,-0.0243 -1.90834,-0.92009 -3.9352,-1.99064 z m 457.21847,0.28484 c 0.0586,-1.3203 3.74626,-5.25 4.92668,-5.25 0.62665,0 2.46702,-0.68656 4.08971,-1.52568 2.33019,-1.20499 2.95034,-1.2494 2.95034,-0.21129 0,0.72292 -2.38437,2.75947 -5.2986,4.52568 -5.43469,3.29377 -6.72621,3.77048 -6.66813,2.46129 z m -83.53327,-1.25 c 0.33992,-0.55 0.81648,-1 1.05902,-1 0.24254,0 0.44098,0.45 0.44098,1 0,0.55 -0.47656,1 -1.05902,1 -0.58246,0 -0.7809,-0.45 -0.44098,-1 z m -285.80902,-0.69098 c -0.30746,-0.49748 -0.19496,-1.49357 0.25,-2.21353 0.44496,-0.71996 1.06058,-0.90199 1.36804,-0.40451 0.30746,0.49748 0.19496,1.49357 -0.25,2.21353 -0.44496,0.71996 -1.06058,0.90199 -1.36804,0.40451 z m 127.77384,-0.10717 c 0.25565,-0.25565 0.006,-1.32265 -0.5554,-2.37111 -1.12651,-2.10489 -0.18872,-6.53564 1.09666,-5.1814 0.44408,0.46786 1.01481,2.46316 1.26829,4.43399 0.333,2.58904 0.0814,3.58334 -0.90674,3.58334 -0.7522,0 -1.15846,-0.20917 -0.90281,-0.46482 z m -226.46482,-5.20185 c -1.2819,-0.82843 -1.24555,-0.9716 0.25,-0.98469 0.9625,-0.008 1.75,0.43469 1.75,0.98469 0,1.21961 -0.11279,1.21961 -2,0 z m 374.13308,-2.45531 -2.36691,-2.33442 3.22746,-0.70887 c 3.67796,-0.80782 6.69037,1.27375 5.6745,3.92106 -0.8599,2.24086 -3.76922,1.85009 -6.53505,-0.87777 z m 107.53359,-0.21136 c -1.31284,-1.31283 -0.63363,-3.33333 1.12053,-3.33333 1.07031,0 1.84762,0.80225 1.93785,2 0.14488,1.92331 -1.67501,2.71671 -3.05838,1.33333 z m -491.87255,-4.30392 c -2.183831,-2.18382 -4.268391,-3.93053 -4.632361,-3.88158 -1.84576,0.24826 -2.29436,-0.28313 -1.27546,-1.51083 0.91222,-1.09917 0.671,-1.27503 -1.24619,-0.90853 -1.93397,0.3697 -2.507507,-0.064 -3.075043,-2.32524 -0.383713,-1.52883 -1.406843,-3.29826 -2.273621,-3.93207 -1.720667,-1.25818 -2.30261,-0.71741 11.351484,-10.54828 21.305911,-15.34013 22.325131,-15.93065 24.411841,-14.14396 2.64522,2.26491 2.44327,3.87926 -0.58021,4.63811 -1.38899,0.34861 -3.437,1.54541 -4.55115,2.65956 -1.32928,1.32928 -2.71256,1.80772 -4.02353,1.39163 -2.35871,-0.74862 -6.88907,1.95282 -13.05016,7.78178 -1.01735,0.9625 -2.744421,1.75 -3.837931,1.75 -1.45952,0 -1.92487,0.59119 -1.75,2.22325 0.13165,1.22869 -0.32097,2.23522 -1.01179,2.25 -1.70407,0.0365 -1.59334,1.07311 0.44727,4.18748 0.95124,1.45178 1.83339,3.3472 1.96032,4.21204 0.12693,0.86484 1.0434,2.17903 2.0366,2.92042 0.993191,0.74138 1.682161,1.79966 1.531031,2.35172 -0.15112,0.55206 0.17708,0.72449 0.72934,0.38318 1.31781,-0.81446 4.65217,1.00468 5.39641,2.94413 1.12543,2.93284 -2.55083,1.56322 -6.55685,-2.44281 z m 115.95588,3.30831 c 0.6875,-0.27741 1.8125,-0.27741 2.5,0 0.6875,0.27741 0.125,0.50439 -1.25,0.50439 -1.375,0 -1.9375,-0.22698 -1.25,-0.50439 z m 382.91667,-3.00439 c -1.13232,-1.13231 -0.73807,-2.33333 0.76594,-2.33333 0.78794,0 1.70879,-0.87015 2.04633,-1.93366 0.42624,-1.34294 1.28532,-1.80432 2.81212,-1.51029 4.15771,0.80071 5.3754,-0.31105 5.55549,-5.07217 0.18538,-4.90093 0.0476,-5.05926 -2.83516,-3.25892 -1.51844,0.94828 -2.23075,0.95568 -3.15365,0.0328 -0.9229,-0.9229 -0.75914,-1.35498 0.72504,-1.91299 1.05447,-0.39644 2.4287,-1.40352 3.05383,-2.23795 0.98562,-1.3156 1.62937,-1.12456 4.84587,1.43803 2.04009,1.62534 4.56611,3.39938 5.61339,3.9423 2.7499,1.42558 2.34093,2.83931 -0.60732,2.09935 -2.03152,-0.50988 -2.73103,-0.1484 -3.66051,1.89159 -0.63199,1.38706 -1.75184,2.52193 -2.48856,2.52193 -0.73671,0 -1.34028,0.3375 -1.34127,0.75 -0.002,0.90026 -8.2933,6.25 -9.6864,6.25 -0.53816,0 -1.27848,-0.3 -1.64514,-0.66667 z m -121.66667,-3.83333 c 0,-2.44444 0.45238,-3.5 1.5,-3.5 1.04762,0 1.5,1.05556 1.5,3.5 0,2.44444 -0.45238,3.5 -1.5,3.5 -1.04762,0 -1.5,-1.05556 -1.5,-3.5 z m -252.30902,-0.19098 c -0.30746,-0.49748 -0.19496,-1.49357 0.25,-2.21353 0.44496,-0.71996 1.06058,-0.90199 1.36804,-0.40451 0.30746,0.49748 0.19496,1.49357 -0.25,2.21353 -0.44496,0.71996 -1.06058,0.90199 -1.36804,0.40451 z M 83.191037,243 c 0.339919,-0.55 1.068034,-1 1.618034,-1 0.55,0 0.721885,0.45 0.381966,1 -0.339919,0.55 -1.068034,1 -1.618034,1 -0.55,0 -0.721885,-0.45 -0.381966,-1 z m 383.965733,-1.05544 c -0.39708,-0.64249 -0.1612,-1.51473 0.52417,-1.93832 1.51391,-0.93564 5.86787,0.10645 6.24108,1.49376 0.38529,1.43221 -5.8996,1.8452 -6.76525,0.44456 z m -234.71573,-0.60684 c 0.6875,-0.27741 1.8125,-0.27741 2.5,0 0.6875,0.27741 0.125,0.50439 -1.25,0.50439 -1.375,0 -1.9375,-0.22698 -1.25,-0.50439 z m -130.75,-3.12175 c 0,-1.21942 3.87538,-4.21597 5.45241,-4.21597 0.78626,0 1.70767,-0.45 2.04759,-1 1.03632,-1.6768 3.5,-1.11429 3.5,0.79911 0,1.16456 -1.32263,2.29063 -3.75,3.19268 -4.80098,1.78413 -7.25,2.19765 -7.25,1.22418 z m 360,-3.71597 c 0,-2.44444 0.45238,-3.5 1.5,-3.5 1.04762,0 1.5,1.05556 1.5,3.5 0,2.44444 -0.45238,3.5 -1.5,3.5 -1.04762,0 -1.5,-1.05556 -1.5,-3.5 z m 134.38,2.04789 c -0.7754,-2.02068 0.3778,-3.54789 2.67902,-3.54789 2.31894,0 2.50779,-1.2847 0.44098,-3 -1.19128,-0.98868 -1.80645,-0.99056 -2.98899,-0.009 -0.81894,0.67967 -1.24239,1.63477 -0.94098,2.12245 0.3014,0.48754 -0.37855,0.88655 -1.51101,0.88655 -1.16357,0 -2.05902,-0.65234 -2.05902,-1.5 0,-0.825 0.40186,-1.5 0.89301,-1.5 1.85961,0 2.10095,-3.35045 0.3811,-5.29072 -2.34707,-2.64787 -1.09831,-2.07468 6.97589,3.20201 7.24967,4.73784 8.19259,6.08871 4.25,6.08871 -1.83333,0 -2.5,0.53333 -2.5,2 0,1.47328 -0.66667,2 -2.53138,2 -1.39227,0 -2.78214,-0.65345 -3.08862,-1.45211 z m -354.68902,-2.23887 c -0.30746,-0.49748 -0.19496,-1.49357 0.25,-2.21353 0.44496,-0.71996 1.06058,-0.90199 1.36804,-0.40451 0.30746,0.49748 0.19496,1.49357 -0.25,2.21353 -0.44496,0.71996 -1.06058,0.90199 -1.36804,0.40451 z M 310.69104,233 c 0,-0.55 0.45,-1 1,-1 0.55,0 1,0.45 1,1 0,0.55 -0.45,1 -1,1 -0.55,0 -1,-0.45 -1,-1 z m -24.55249,-4.35312 c -0.36476,-1.45332 -0.32635,-3.43091 0.0854,-4.39464 0.60955,-1.42683 0.9373,-1.1407 1.76484,1.54077 0.71566,2.31893 0.69041,3.61887 -0.0854,4.39464 -0.80219,0.80219 -1.28191,0.38336 -1.76484,-1.54077 z m 26.30249,0.96107 c -2.78587,-2.11478 -2.20519,-3.93901 0.99795,-3.13507 3.42599,0.85986 3.63841,1.07791 2.90697,2.98399 -0.71631,1.8667 -1.59985,1.90088 -3.90492,0.15108 z m 138.71573,-3.66339 c -0.39708,-0.64249 -0.1612,-1.51473 0.52417,-1.93832 1.51391,-0.93564 5.86787,0.10645 6.24108,1.49376 0.38529,1.43221 -5.8996,1.8452 -6.76525,0.44456 z m -325.87123,-1.55891 c -0.94099,-2.45216 0.9997,-4.13139 3.18302,-2.75419 2.38005,1.5013 2.15889,3.80627 -0.40024,4.17141 -1.28698,0.18363 -2.3826,-0.37435 -2.78278,-1.41722 z m 123.1555,0.95207 c 0.6875,-0.27741 1.8125,-0.27741 2.5,0 0.6875,0.27741 0.125,0.50439 -1.25,0.50439 -1.375,0 -1.9375,-0.22698 -1.25,-0.50439 z m 332.85056,-1.73918 c 0.29578,-0.7708 1.40852,-1.62916 2.47274,-1.90746 4.29629,-1.1235 -1.94472,-5.61303 -9.57008,-6.88433 -1.09823,-0.18309 -2.67323,-1.7487 -3.5,-3.47911 -1.33745,-2.79925 -11.98015,-11.2206 -12.01853,-9.51002 -0.008,0.37531 -0.34592,0.1897 -0.75,-0.41246 -1.22475,-1.82514 -15.35907,-12.4044 -16.58803,-12.41581 -0.63066,-0.006 -2.67236,-1.58085 -4.5371,-3.5 C 534.93585,183.57021 532.8681,182 532.20558,182 c -0.66251,0 -2.03196,-0.91426 -3.04322,-2.0317 -1.01127,-1.11743 -4.34351,-3.43369 -7.40499,-5.14723 -3.06148,-1.71355 -6.91633,-4.36194 -8.56633,-5.88532 -1.65,-1.52338 -4.125,-2.9303 -5.5,-3.1265 -1.375,-0.1962 -2.39198,-0.89511 -2.25995,-1.55313 0.13202,-0.65802 -0.76401,-1.73376 -1.99119,-2.39052 -1.22718,-0.65677 -3.47227,-2.43517 -4.98911,-3.952 -1.51683,-1.51683 -4.38538,-3.295 -6.37457,-3.95149 -3.5036,-1.1563 -7.38518,-4.16594 -7.38518,-5.72621 0,-0.42025 -1.86252,-1.571 -4.13894,-2.55722 -2.27642,-0.98622 -5.6129,-3.3109 -7.41441,-5.16596 -1.80152,-1.85507 -4.71245,-4.11593 -6.46874,-5.02414 -2.93807,-1.51934 -11.97791,-9.77526 -11.97791,-10.93921 0,-1.62462 5.95566,-3.78926 15.07215,-5.47813 5.73532,-1.06249 16.72785,-3.27401 24.42785,-4.91449 7.7,-1.64048 25.025,-5.33133 38.5,-8.20189 13.475,-2.87057 26.65763,-5.58579 29.29473,-6.033843 2.6371,-0.44805 5.5621,-1.054447 6.5,-1.34755 0.9379,-0.293102 10.25527,-2.300897 20.70527,-4.461766 10.45,-2.16087 20.2375,-4.243778 21.75,-4.628686 3.67193,-0.934448 3.62046,0.805559 -0.32652,11.039795 -1.69209,4.38745 -7.96238,21.25219 -13.93399,37.47719 -5.97161,16.225 -14.0333,38.05 -17.91486,48.5 -3.88157,10.45 -7.06128,19.53845 -7.06601,20.19655 -0.005,0.6581 2.35388,2.82713 5.24138,4.82007 14.81897,10.22801 14.66705,10.07918 12.19625,11.94783 -2.59506,1.96264 -8.58666,2.06504 -7.84569,0.13409 z m -271.60056,-0.32743 c 0.825,-0.31405 1.83061,-1.06602 2.23469,-1.67105 0.45317,-0.67854 0.74055,-0.42949 0.75,0.64994 0.0103,1.17572 -0.72305,1.72409 -2.23469,1.67105 -1.50344,-0.0528 -1.75229,-0.2684 -0.75,-0.64994 z m 136,-4.77111 c 0,-2.44444 0.45238,-3.5 1.5,-3.5 1.04762,0 1.5,1.05556 1.5,3.5 0,2.44444 -0.45238,3.5 -1.5,3.5 -1.04762,0 -1.5,-1.05556 -1.5,-3.5 z m 131,0.94098 c 0,-0.85746 0.45,-1.2809 1,-0.94098 0.55,0.33992 1,1.04148 1,1.55902 0,0.51754 -0.45,0.94098 -1,0.94098 -0.55,0 -1,-0.70156 -1,-1.55902 z m -270.65841,-0.23262 c -1.61432,-1.0016 -2.0728,-4.41981 -0.65929,-4.91538 1.49183,-0.52303 3.79778,3.62694 2.65198,4.77274 -0.46805,0.46805 -1.36476,0.53224 -1.99269,0.14264 z M 560.4366,216.75 c -0.2316,-0.6875 0.2934,-1.84587 1.16667,-2.57416 0.94418,-0.78741 1.01846,-1.02879 0.18326,-0.59549 -0.96748,0.50193 -1.16403,0.33957 -0.63167,-0.5218 1.10242,-1.78376 4.00881,1.2674 3.20431,3.36391 -0.7214,1.87995 -3.32631,2.09746 -3.92257,0.32754 z m -434.09946,-2.26683 c -1.7127,-1.25236 -1.66726,-1.4232 0.81033,-3.04658 5.91064,-3.8728 7.78874,2.31732 -30.516211,-100.57986 -3.81712,-10.25379 -6.940222,-19.415079 -6.940222,-20.358407 0,-1.277026 0.574738,-1.572867 2.250002,-1.158167 1.2375,0.306335 15.075001,3.260173 30.750001,6.564084 15.675,3.303911 41.55,8.75985 57.5,12.1243 35.42188,7.47181 45.69186,9.57883 55.89242,11.46709 6.88007,1.27359 12.60758,3.55231 12.60758,5.01599 0,1.09591 -3.55181,4.48838 -4.69919,4.48838 -0.69009,0 -1.99214,1.12547 -2.89345,2.50104 -0.9013,1.37557 -3.38668,3.48343 -5.52305,4.68414 -2.13637,1.2007 -3.88431,2.55024 -3.88431,2.99896 0,0.44872 -0.675,0.81586 -1.5,0.81586 -0.825,0 -1.5,0.62686 -1.5,1.39301 0,1.39296 -2.73248,3.09951 -4.36634,2.72697 -1.70468,-0.38869 -5.63366,2.96149 -5.63366,4.80373 0,1.34563 -1.06249,2.12844 -3.75,2.76292 -2.60218,0.61432 -4.14931,1.71603 -5.05457,3.59934 -0.75703,1.57494 -2.12107,2.71403 -3.25,2.71403 -1.18536,0 -1.94621,0.68372 -1.94743,1.75 -0.001,1.2954 -0.93993,1.81709 -3.61258,2.00825 -2.4552,0.17561 -4.23776,1.0556 -5.57057,2.75 -1.07801,1.37046 -2.63475,2.49175 -3.45944,2.49175 -1.75875,0 -15.01734,10.67662 -15.80384,12.72621 -0.2956,0.77031 -0.9759,1.12957 -1.5118,0.79837 -0.5359,-0.3312 -1.54732,0.31528 -2.24761,1.43662 -0.70029,1.12134 -1.84001,2.0388 -2.53271,2.0388 -0.6927,0 -1.25945,0.45 -1.25945,1 0,0.55 -0.86786,1 -1.92857,1 -1.06072,0 -2.60357,0.675 -3.42857,1.5 -0.825,0.825 -1.92705,1.5 -2.44899,1.5 -0.52194,0 -1.47286,0.63124 -2.11316,1.40275 -0.88884,1.07099 -0.87834,1.49804 0.0444,1.80562 1.42507,0.47502 2.22488,7.79163 0.85173,7.79163 -1.16794,0 -2.38023,-4.53828 -1.56475,-5.85775 1.01685,-1.64531 -1.76453,-1.94232 -4.63245,-0.49469 -1.49619,0.75523 -3.19668,2.26317 -3.77886,3.35098 -0.58218,1.08782 -2.10299,2.23999 -3.37957,2.5604 -1.32179,0.33174 -2.93356,1.95131 -3.74371,3.7618 -1.42825,3.19178 -1.91429,3.39702 -5.10426,2.15528 -1.24826,-0.4859 -2.05478,0.0478 -2.91051,1.92591 -0.65107,1.42894 -1.80825,2.59807 -2.57152,2.59807 -0.76327,0 -1.93741,1.30724 -2.60921,2.90497 -1.08339,2.57663 -1.42652,2.75501 -3.0359,1.5782 z m 272.43285,-1.0665 c 0.048,-1.16495 0.28494,-1.4019 0.60416,-0.60417 0.28887,0.72187 0.25335,1.58437 -0.0789,1.91667 -0.33229,0.33229 -0.56864,-0.25834 -0.52522,-1.3125 z m -132.09901,-2.94084 c -0.69572,-0.83829 -1.08832,-1.68238 -0.87244,-1.87577 1.15445,-1.03416 4.57127,-1.44215 5.77062,-0.68904 2.00598,1.25964 0.32677,3.28878 -2.08751,2.52252 -1.36096,-0.43195 -1.81307,-0.2789 -1.35682,0.45933 1.00894,1.63249 0.009,1.34569 -1.45385,-0.41704 z M 434.25593,210.105 c -0.3415,-0.55256 0.1792,-1.40658 1.1571,-1.89783 2.04289,-1.02623 6.30384,-0.18994 6.58703,1.29283 0.25395,1.3297 -6.94848,1.89238 -7.74413,0.605 z m -287.29318,-3.42013 c 0.49718,-1.49155 4.93542,-1.56348 5.42726,-0.088 0.20908,0.62726 -0.95904,1.13457 -2.72829,1.18487 -1.96905,0.056 -2.95033,-0.34282 -2.69897,-1.0969 z m 145.72829,-0.96199 c 0,-1.20659 -0.43072,-1.58215 -1.25,-1.08994 -0.75305,0.45242 -0.66819,0.0347 0.21345,-1.05063 0.8833,-1.08741 1.6109,-1.35925 1.83541,-0.68573 0.20458,0.61373 0.74725,0.88394 1.20593,0.60046 1.12791,-0.69709 4.15726,2.43173 3.45484,3.56828 -1.05042,1.69962 -5.45963,0.61546 -5.45963,-1.34244 z M 557.61453,207.75 c -0.73236,-2.39298 -0.51336,-3.52985 0.59784,-3.10344 1.95072,0.74856 2.68655,3.35344 0.94729,3.35344 -0.80774,0 -1.50305,-0.1125 -1.54513,-0.25 z M 544.69104,205 c -1.21296,-0.78387 -1.06944,-0.9723 0.75,-0.98469 1.2375,-0.008 2.25,0.43469 2.25,0.98469 0,1.25292 -1.06124,1.25292 -3,0 z M 405.3515,203.55755 c -0.6973,-1.81713 0.47907,-2.70739 2.18462,-1.6533 0.97721,0.60395 0.93776,1.03109 -0.18096,1.95954 -1.12537,0.93397 -1.55282,0.86864 -2.00366,-0.30624 z M 544.70635,202.25 c 0.008,-0.4125 0.45153,-1.425 0.98469,-2.25 0.78387,-1.21296 0.9723,-1.06944 0.98469,0.75 0.008,1.2375 -0.43469,2.25 -0.98469,2.25 -0.55,0 -0.99311,-0.3375 -0.98469,-0.75 z M 286.18559,191.61967 C 284.29258,190.23547 284.87795,188 287.13343,188 c 1.46763,0 2.81118,3.72525 1.61105,4.46697 -0.41734,0.25793 -1.56884,-0.12335 -2.55889,-0.8473 z m 242.07966,-0.28689 c -0.35188,-0.91697 -0.20527,-2.10172 0.32579,-2.63278 1.47255,-1.47255 4.1,-0.0187 4.1,2.26862 0,2.50822 -3.49276,2.79562 -4.42579,0.36416 z M 273.18269,189.31611 C 273.47053,185.16566 273.5502,185 275.25843,185 c 1.77161,0 1.15164,3.5126 -1.02654,5.81611 -1.00809,1.0661 -1.2074,0.78115 -1.0492,-1.5 z m 5.53876,-12.12513 c -0.0167,-0.71996 -0.43844,-1.05684 -0.93715,-0.74862 -0.49871,0.30822 -0.66939,-0.34723 -0.37929,-1.45656 0.29009,-1.10933 0.9263,-2.26348 1.4138,-2.56477 1.41387,-0.87382 2.14272,2.28021 0.98632,4.26823 -0.62794,1.07953 -1.06555,1.28214 -1.08368,0.50172 z m -89.58426,-1.27811 c -0.36954,-0.59793 -0.2103,-1.54872 0.35385,-2.11287 1.26163,-1.26163 3.2,-0.19612 3.2,1.75902 0,1.68362 -2.57364,1.93987 -3.55385,0.35385 z m 313.56442,-0.40014 C 501.09678,173.57903 502.11618,171 504.48534,171 c 1.02139,0 2.8589,1.0664 4.08336,2.36978 l 2.22629,2.36977 -2.30197,0.61657 c -3.46398,0.92781 -4.43933,0.78577 -5.79141,-0.84339 z m -228.76057,-6.17501 c -1.41442,-0.57073 -1.69597,-3.94406 -0.39623,-4.74735 0.46958,-0.29021 1.36958,0.60441 2,1.98804 1.65502,3.63237 1.44698,3.99031 -1.60377,2.75931 z m -13.58552,-10.00657 c -0.36786,-0.36787 0.0794,-1.49562 0.99387,-2.50613 0.9145,-1.0105 1.30387,-2.17202 0.86528,-2.58115 -0.43859,-0.40913 -0.99833,-0.18137 -1.24387,0.50613 -0.24553,0.6875 -0.95536,1.25 -1.57738,1.25 -0.62202,0 -0.33202,-0.7875 0.64445,-1.75 1.61779,-1.59464 1.88095,-1.60803 2.96429,-0.15077 0.65388,0.87958 1.63888,1.64926 2.18888,1.71039 0.55,0.0611 1.1438,1.02898 1.31955,2.15077 0.25973,1.65779 -0.22387,2.03961 -2.58333,2.03961 -1.59659,0 -3.20387,-0.30098 -3.57174,-0.66885 z m -1.25949,-9.58115 -1.90499,-2.25 2.25,1.90499 c 1.2375,1.04774 2.25,2.06024 2.25,2.25 0,0.80025 -0.80479,0.20945 -2.59501,-1.90499 z m -19.4815,-4.94098 C 238.92255,142.01423 239.09962,141 240.27952,141 c 1.61316,0 1.91539,2.57056 0.41152,3.5 -0.55,0.33992 -1.03443,0.47898 -1.07651,0.30902 z m 224.74318,-0.47569 C 463.08992,143.06554 463.6988,142 465.69104,142 c 1.11111,0 2,0.66667 2,1.5 0,1.52241 -2.1154,2.05126 -3.33333,0.83333 z M 246.89104,137.8 c -1.42539,-1.42539 -1.62106,-7.8 -0.23943,-7.8 0.52832,0 1.54082,0.71739 2.25,1.59419 0.70919,0.87681 2.30193,2.61591 3.53943,3.86467 1.2375,1.24877 2.25,2.55638 2.25,2.90581 0,1.14193 -6.56895,0.66638 -7.8,-0.56467 z"
     id="path26" />
  <path
     style="fill:#a13000"
     d="m 335.71451,464.29059 c -8.26291,-7.54017 -15.02347,-14.24674 -15.02347,-14.90349 0,-0.65674 7.2,-7.79203 16,-15.85619 l 16,-14.66212 v -68.87538 c 0,-41.30191 0.37171,-69.10511 0.92849,-69.44922 0.51067,-0.31561 1.67282,2.92034 2.58256,7.19099 0.90974,4.27065 2.05757,9.11482 2.55075,10.76482 0.49317,1.65 4.06504,15.825 7.93748,31.5 3.87244,15.675 7.92718,31.875 9.01053,36 6.92105,26.35291 6.99019,26.91451 6.99019,56.77663 v 27.80455 l -15.02347,13.70941 C 359.40467,471.83077 352.21523,478 351.69104,478 c -0.52419,0 -7.71363,-6.16923 -15.97653,-13.70941 z M 314.69104,332.5908 c -9.13924,-3.92445 -34.82768,-15.4757 -36.7251,-16.51408 -0.9762,-0.53423 -8.9749,-4.1875 -17.7749,-8.11837 -30.77756,-13.74801 -36.05706,-16.13258 -43.72655,-19.74972 -4.24961,-2.00423 -7.97259,-4.2852 -8.27329,-5.06882 C 207.52643,281.40746 267.39692,221 269.77863,221 c 0.96666,0 2.58155,2.2431 4.13963,5.75 2.89848,6.52386 22.93232,50.65535 25.7621,56.75 7.65513,16.4872 14.38324,31.35334 15.97981,35.30825 1.04172,2.58046 2.82482,6.4744 3.96245,8.65319 2.08232,3.98807 2.70879,7.55883 1.31842,7.51482 -0.4125,-0.0131 -3.225,-1.08651 -6.25,-2.38546 z m -27.94461,-29.62044 c 3.03099,-1.62214 5.21253,-6.7287 4.49911,-10.53156 -0.82245,-4.38399 -5.65359,-8.4388 -10.0545,-8.4388 -4.40091,0 -9.23205,4.05481 -10.0545,8.4388 -0.69265,3.69217 1.40095,8.78994 4.30448,10.48109 2.28465,1.33068 8.85847,1.36003 11.30541,0.0505 z m 93.94461,31.22681 c 0,-1.1504 10.04043,-24.30776 11.5752,-26.69717 0.70655,-1.1 3.29596,-6.7275 5.75423,-12.50554 4.27962,-10.05905 6.97401,-16.07433 14.10712,-31.49446 1.78095,-3.85 6.7988,-14.81369 11.15077,-24.36376 4.35197,-9.55006 8.5197,-17.60279 9.26162,-17.89495 1.50009,-0.59072 62.15106,59.41513 62.15106,61.48999 0,1.42364 -8.02811,5.60213 -26.08422,13.57637 -6.92132,3.05671 -15.92132,7.1115 -20,9.01064 -4.07868,1.89914 -19.11578,8.71909 -33.41578,15.15544 -14.3,6.43636 -27.30664,12.33782 -28.90364,13.11437 -3.23268,1.5719 -5.59636,1.82915 -5.59636,0.60907 z m 48.07692,-33.12025 C 435.20631,294.63858 430.68372,284 421.50836,284 c -8.70239,0 -13.00072,10.06329 -7.22843,16.92327 2.18275,2.59405 3.29299,3.07673 7.07693,3.07673 3.62712,0 5.04874,-0.56071 7.4111,-2.92308 z M 130.82947,203.25 c -0.60732,-1.5125 -3.31613,-8.825 -6.0196,-16.25 -2.70346,-7.425 -6.00702,-16.425 -7.34124,-20 -15.8861,-42.56628 -27.983146,-76.127781 -27.583759,-76.527168 0.272183,-0.272183 5.852418,0.653076 12.400529,2.056132 6.5481,1.403056 15.95564,3.394496 20.90564,4.425423 30.1444,6.278113 58.88643,12.306033 64.5,13.527243 9.12862,1.98589 33.39579,7.03759 46.79002,9.74027 6.20951,1.25296 11.38451,2.70176 11.5,3.21957 0.16021,0.71831 -55.83935,41.61686 -70.31961,51.357 -5.67481,3.81717 -16.91612,11.87732 -23.97041,17.18707 -4.125,3.10488 -9.8625,7.1541 -12.75,8.99826 -2.8875,1.84417 -5.25,3.72724 -5.25,4.18461 0,1.8742 -1.83183,0.64613 -2.86157,-1.91841 z m 436.86157,-0.0121 c -1.375,-0.90784 -6.55,-4.61179 -11.5,-8.23099 -4.95,-3.61921 -10.65475,-7.68885 -12.67723,-9.04364 -2.02248,-1.3548 -13.66984,-9.66327 -25.88302,-18.46327 -12.21319,-8.8 -24.05843,-17.29267 -26.32277,-18.87261 -2.26434,-1.57993 -9.20264,-6.52993 -15.41844,-11 -6.21581,-4.47006 -13.064,-9.25239 -15.21821,-10.62739 -2.15421,-1.375 -3.78163,-2.94828 -3.61648,-3.49617 0.16515,-0.5479 6.56334,-2.24882 14.21821,-3.77983 12.36449,-2.47296 60.70711,-12.58038 92.41794,-19.32266 6.325,-1.344801 19.15,-4.055224 28.5,-6.023159 9.35,-1.967935 18.07736,-3.822948 19.39413,-4.122252 3.21961,-0.731821 3.46373,-1.569361 -10.41845,35.744071 -6.44563,17.325 -15.60769,42.03939 -20.36013,54.92087 -4.75244,12.88149 -9.08512,23.5439 -9.62817,23.69426 -0.54306,0.15036 -2.11238,-0.46939 -3.48738,-1.37723 z"
     id="path24" />
  <path
     style="fill:#1d0d09"
     d="m 336.23142,463.79817 c -7.99721,-7.26101 -14.54038,-13.54112 -14.54038,-13.95582 0,-1.03244 28.81864,-27.27807 30.30731,-27.60138 1.84108,-0.39985 29.69269,25.06148 29.69269,27.14441 0,1.37126 -28.48211,27.61462 -29.97035,27.61462 -0.52189,0 -7.49206,-5.94082 -15.48927,-13.20183 z M 280.19104,309.50575 c -13.76581,-6.2647 -25.13403,-12.02175 -25.29827,-12.81143 -0.41766,-2.00819 26.63378,-28.87265 28.67732,-28.4791 1.65664,0.31904 23.92924,47.56911 24.05663,51.03478 0.0354,0.9625 -0.49818,1.72368 -1.18568,1.69152 -0.6875,-0.0322 -12.5,-5.17826 -26.25,-11.43577 z m 8.1,-7.90575 c 5.82649,-5.82649 4.23647,-14.09907 -3.31645,-17.25488 -6.91542,-2.88945 -14.28355,2.21215 -14.28355,9.88974 0,5.5104 5.12532,10.76514 10.5,10.76514 2.87451,0 4.45856,-0.75856 7.1,-3.4 z m 107.12425,18.79092 c -0.7976,-0.7976 1.19303,-5.6508 12.67045,-30.89092 6.74591,-14.835 10.07128,-21.08188 11.32731,-21.27892 1.15774,-0.18162 6.65331,4.61115 15.75344,13.73883 12.22565,12.26265 13.79072,14.19645 12.5,15.445 C 446.41969,298.61099 397.86083,321 396.49182,321 c -0.2571,0 -0.74153,-0.27409 -1.07653,-0.60908 z m 31.40419,-16.95734 c 3.59631,-1.85973 6.2429,-7.46641 5.37968,-11.39663 -2.22643,-10.13686 -17.31701,-11.20612 -20.53515,-1.45504 -1.56802,4.75114 0.26667,9.98351 4.38012,12.49175 3.82306,2.33115 6.77287,2.42969 10.77535,0.35992 z"
     id="path22" />
</svg>
